<svg width="928" height="476" viewBox="0 0 928 476" fill="none" xmlns="http://www.w3.org/2000/svg">
<path d="M75.8447 146.507H3.06836V2.48999H75.8277V146.507H75.8447Z" fill="#F6F3F3"/>
<path d="M147.172 52.0587H85.5371V2.48999H281.754V52.0415H220.119V146.507H147.155V52.0587H147.172Z" fill="#F6F3F3"/>
<path d="M308.158 63.0854C311.224 56.6961 316.216 46.0472 317.187 39.469H291.463V2.48999H355.585V31.5339C355.585 42.9556 346.556 56.6961 341.19 63.0854H308.175H308.158Z" fill="#F6F3F3"/>
<path d="M455.652 149.41C369.06 149.41 361.189 117.67 361.189 99.0859V97.5401H446.623C446.623 103.74 449.315 113.032 469.281 113.032C486.18 113.032 491.172 108.189 491.172 102.968V102.384C491.172 97.5401 489.247 93.0916 464.681 92.1298L434.545 91.1679C375.789 89.0381 363.506 68.1355 363.506 45.4809V43.7462C363.506 16.6431 385.005 0 454.119 0H478.497C555.107 0 572.96 20.5248 572.96 45.292V46.2538H489.247C488.667 41.6164 486.368 34.6431 467.356 34.6431C449.877 34.6431 446.623 37.3569 446.623 42.2004V42.5954C446.623 47.8168 452.194 50.7195 474.272 51.3034L503.062 52.0763C558.735 53.6221 578.326 67.1736 578.326 96.4065V99.1202C578.326 124.677 562.006 149.445 480.797 149.445H455.652V149.41Z" fill="#F6F3F3"/>
<path d="M64.7034 215.192H3.06836V165.641H199.285V215.192H137.65V309.658H64.6864V215.192H64.7034Z" fill="#F6F3F3"/>
<path d="M208.992 165.641H281.956V213.457H358.361V165.641H431.325V309.658H358.361V258.354H281.956V309.658H208.992V165.641Z" fill="#F6F3F3"/>
<path d="M98.875 475.711C19.0118 475.711 0 436.225 0 403.127V397.322C0 360.738 21.8908 325.889 109.812 325.889H115.962C217.137 325.889 226.745 362.078 226.745 382.998V383.187H152.248C151.294 379.511 146.49 369.446 114.803 369.446C86.3879 369.446 75.0592 381.641 75.0592 399.057V400.792C75.0592 418.792 85.8087 433.116 114.224 433.116C142.64 433.116 150.323 424.219 150.323 420.337H111.737V390.916H227.699V472.792H178.738C177.392 468.721 173.747 461.37 170.101 457.694C165.502 461.954 148.602 475.694 103.866 475.694H98.875V475.711Z" fill="#F6F3F3"/>
<path d="M390.034 455.582H318.621L311.125 472.809H237.395L304.788 328.792H407.308L478.926 472.809H397.53L390.034 455.582ZM353.936 373.122L336.849 413.003H371.414L353.936 373.122Z" fill="#F6F3F3"/>
<path d="M854.663 2.48999V67.9117L787.457 2.48999H705.09V81.7724C723.011 75.0396 742.415 71.3469 762.653 71.3469C820.37 71.3469 871.12 101.25 900.591 146.507H927.593V2.48999H854.629H854.663Z" fill="#F6F3F3"/>
<path d="M695.396 85.8259V2.48999H622.637V146.507H624.732C641.972 120.04 666.487 98.8621 695.413 85.8087L695.396 85.8259Z" fill="#F6F3F3"/>
<path d="M600.677 269.02H512.807V256.637H598.803C598.104 250.402 597.696 244.082 597.696 237.658C597.696 230.702 598.173 223.866 598.99 217.133H512.79V205.9H600.728C603.437 191.765 607.9 178.248 613.913 165.641H440.984V309.658H613.913C607.849 296.931 603.368 283.293 600.66 269.003L600.677 269.02Z" fill="#F6F3F3"/>
<path d="M641.53 350.484L618.413 392.873L584.818 328.808H488.635V472.826H561.019V401.599L599.23 472.826H633.983L672.382 401.599V472.826H744.953V403.007C704.204 398.61 667.901 379.253 641.547 350.501L641.53 350.484Z" fill="#F6F3F3"/>
<path d="M762.67 403.953C759.978 403.953 757.304 403.884 754.629 403.747V472.81H927.609V432.155H826.434V419.771H927.609V380.285H847.49C822.703 395.296 793.692 403.953 762.653 403.953H762.67Z" fill="#F6F3F3"/>
<path d="M900.606 328.792C890.589 344.181 878.085 357.784 863.689 369.051H927.607V328.792H900.606Z" fill="#F6F3F3"/>
<path d="M871.154 264.417H875.345V265.156H873.676V268.763H872.824V265.156H871.154V264.417ZM674.409 281.129H664.903C662.774 281.129 661.718 279.944 661.718 277.591V273.812C661.718 272.73 661.973 271.854 662.587 271.15C663.149 270.446 663.932 270.102 664.903 270.102H672.365C674.12 270.102 675.312 270.961 675.84 272.696L676.88 276.354H683.711V272.318C683.711 269.622 682.842 267.423 681.036 265.62C679.213 263.833 676.999 262.94 674.409 262.94H663.37C660.781 262.94 658.515 263.868 656.641 265.74C654.818 267.595 653.898 269.828 653.898 272.421V278.914C653.898 281.559 654.818 283.809 656.641 285.681C658.515 287.553 660.764 288.463 663.37 288.463H672.876C674.972 288.463 676.028 289.7 676.028 292.104V297.017C676.028 298.047 675.738 298.957 675.176 299.644C674.58 300.366 673.813 300.709 672.859 300.709H665.295C663.387 300.709 662.229 299.833 661.769 298.133L660.764 293.994H653.898V298.459C653.898 301.173 654.767 303.389 656.556 305.175C658.328 306.961 660.559 307.854 663.217 307.854H674.409C676.999 307.854 679.248 306.91 681.104 305.038C682.927 303.2 683.83 300.933 683.83 298.27V290.679C683.83 288.085 682.927 285.852 681.053 283.963C679.196 282.074 676.982 281.129 674.409 281.129ZM719.946 265.74C721.769 267.578 722.706 269.81 722.706 272.404V281.851C722.706 284.496 721.769 286.728 719.946 288.583C718.055 290.438 715.806 291.383 713.2 291.383H700.917V307.872H693.046V262.957H713.183C715.789 262.957 718.055 263.885 719.929 265.757L719.946 265.74ZM714.835 273.881C714.835 272.782 714.528 271.923 713.932 271.236C713.353 270.532 712.569 270.206 711.666 270.206H700.917V284.135H711.666C712.569 284.135 713.353 283.774 713.932 283.087C714.528 282.383 714.835 281.524 714.835 280.425V273.864V273.881ZM793.233 289.305L801.053 307.872H792.671L785.414 290.301H777.935V307.872H770.048V262.957H789.741C792.381 262.957 794.613 263.885 796.453 265.757C798.293 267.595 799.23 269.845 799.23 272.421V280.253C799.23 282.28 798.668 284.152 797.56 285.784C796.402 287.398 794.937 288.549 793.216 289.322L793.233 289.305ZM791.342 273.881C791.342 272.816 791.07 271.923 790.507 271.236C789.945 270.532 789.179 270.206 788.276 270.206H777.969V283.053H788.276C789.179 283.053 789.945 282.709 790.507 282.057C791.07 281.37 791.342 280.494 791.342 279.429V273.898V273.881ZM804.204 270.188H815.533V307.854H823.42V270.188H834.851V262.94H804.204V270.188ZM861.069 281.112H851.597C849.485 281.112 848.412 279.927 848.412 277.574V273.795C848.412 272.713 848.701 271.837 849.281 271.133C849.843 270.429 850.643 270.085 851.597 270.085H859.076C860.831 270.085 862.006 270.944 862.551 272.679L863.591 276.337H870.439V272.301C870.439 269.604 869.536 267.406 867.747 265.602C865.924 263.816 863.744 262.923 861.086 262.923H850.081C847.458 262.923 845.209 263.851 843.386 265.723C841.563 267.578 840.609 269.81 840.609 272.404V278.896C840.609 281.541 841.563 283.791 843.386 285.664C845.209 287.536 847.458 288.446 850.081 288.446H859.57C861.7 288.446 862.739 289.683 862.739 292.087V296.999C862.739 298.03 862.449 298.94 861.904 299.627C861.325 300.349 860.541 300.692 859.587 300.692H852.04C850.149 300.692 848.991 299.816 848.514 298.116L847.492 293.977H840.626V298.442C840.626 301.156 841.529 303.372 843.301 305.158C845.107 306.944 847.304 307.837 849.962 307.837H861.103C863.744 307.837 865.976 306.893 867.849 305.02C869.689 303.183 870.609 300.915 870.609 298.253V290.662C870.609 288.068 869.689 285.835 867.764 283.946C865.941 282.057 863.71 281.112 861.103 281.112H861.069ZM880.507 264.4L878.803 267.028L877.117 264.4H876.384V268.746H877.117V266.066C877.117 265.912 877.032 265.774 877.032 265.585C877.117 265.74 877.219 265.912 877.287 266.015L878.684 268.179H878.82L880.183 266.049C880.285 265.894 880.32 265.757 880.388 265.568C880.371 265.791 880.371 265.929 880.371 266.049V268.728H881.154V264.383H880.49L880.507 264.4ZM757.68 265.688C759.571 267.492 760.474 269.776 760.474 272.387V298.202C760.474 300.933 759.571 303.2 757.68 305.038C755.823 306.91 753.625 307.854 750.968 307.854H740.32C737.663 307.854 735.431 306.91 733.574 305.038C731.734 303.2 730.797 300.933 730.797 298.202V272.387C730.797 269.81 731.734 267.56 733.574 265.723C735.431 263.851 737.68 262.923 740.32 262.923H750.968C753.625 262.923 755.806 263.851 757.68 265.688ZM752.62 273.864C752.62 272.799 752.331 271.906 751.717 271.219C751.138 270.515 750.371 270.188 749.469 270.188H741.922C740.934 270.188 740.184 270.532 739.588 271.219C739.026 271.923 738.753 272.799 738.753 273.864V296.896C738.753 297.944 739.026 298.803 739.588 299.507C740.184 300.228 740.934 300.606 741.922 300.606H749.469C750.371 300.606 751.138 300.228 751.717 299.507C752.331 298.803 752.62 297.944 752.62 296.896V273.864ZM785.84 148.293H701.053L688.089 169.076L772.842 169.024L785.84 148.293ZM817.969 210.623H805.26L792.211 231.457H831.001L844.034 252.24H868.786L803.182 147.589L750.474 231.475H692.825L706.062 210.658H741.871L754.92 189.858H675.057L662.007 210.658H681.173L655.057 252.257H762.433L803.165 187.007L817.952 210.623H817.969Z" fill="#F6F3F3"/>
</svg>
