<?xml version="1.0" encoding="UTF-8"?>
<svg id="Layer_1" data-name="Layer 1" xmlns="http://www.w3.org/2000/svg" viewBox="0 0 7929.08 1236.45" width="300" height="47">
  <defs>
    <style>
      .cls-1 {
        fill: #fff;
        stroke-width: 0px;
      }
    </style>
  </defs>
  <path id="EA" class="cls-1" d="M592.42,82.47h866.58l-132.79,210.22-866.38.51,132.6-210.73h0ZM1219.92,1136.06h-253.5v.26H122.42l266.91-421.7h-195.92l133.31-210.78h816.26l-133.51,210.78h-365.93l-135.22,210.98h589.28L1636.26,75.17l670.46,1060.9h-253l-133.2-210.57h-396.38l133.31-211.18h129.88l-151.06-239.47-416.35,661.22h0Z"/>
  <polygon class="cls-1" points="7698.62 139.67 7659.02 139.67 7659.02 224.02 7638.98 224.02 7638.98 139.67 7599.37 139.67 7599.37 122.2 7698.62 122.2 7698.62 139.67"/>
  <path class="cls-1" d="M7835.17,224.02h-18.41v-62.91c0-2.67,0-5.94.7-11.07-1.86,4.08-2.32,7.58-4.89,11.07l-32.39,49.98h-3.26l-33.09-50.8c-1.86-2.8-3.96-6.76-6.06-10.26,0,4.08,2.1,7.46,2.1,11.07v62.91h-17.24v-101.83h17.24l39.61,61.52,40.31-61.52h15.38v101.83h0Z"/>
  <g>
    <path class="cls-1" d="M3175.17,915.53c0,62.33-21.66,115.33-64.54,158.44-43.58,43.8-96.71,65.81-157.98,65.81h-264.24c-62.44,0-115.11-21.08-157.05-62.9-42.17-41.95-62.91-93.79-62.91-157.5v-104.5h162.41l23.76,96.8c10.72,39.84,38.21,60.46,83.19,60.46h178.71c22.37,0,40.32-8.03,54.53-24.82,13.28-15.95,20.03-37.28,20.03-61.51v-115.09c0-56.39-24.94-85.16-74.56-85.16h-224.38c-61.28,0-114.65-21.43-158.92-65.24-42.87-43.91-64.77-96.69-64.77-158.66v-151.92c0-60.92,21.91-113.23,64.77-156.69,44.28-43.79,97.64-65.47,158.92-65.47h260.51c61.27,0,113.47,20.97,156.34,62.68,42.64,42.05,63.39,93.77,63.39,156.81v94.47h-161.25l-24.47-85.61c-12.59-40.77-41-60.81-82.25-60.81h-176.16c-22.84,0-41.02,8.16-54.52,24.69-14.45,16.54-20.75,37.05-20.75,62.33v88.54c0,55.22,24.94,82.83,75.27,82.83h224.4c60.58,0,113.24,22.14,157.05,66.52,43.8,44.39,65.47,96.58,65.47,157.52v177.99h0Z"/>
    <path class="cls-1" d="M3832.5,257.45h-253.52v326.43h253.52c21.66,0,39.84-8.28,53.59-24.35,13.98-16.66,21.2-36.81,21.2-62.21v-153.54c0-25.64-7.22-45.66-21.2-61.98-13.75-16.43-31.92-24.35-53.59-24.35h0ZM4093.48,530.28c0,61.86-21.91,114.4-65.25,157.86-44.51,43.45-97.86,65.47-159.39,65.47h-289.86v386.18h-185.94V87.6h475.8c61.53,0,114.88,21.68,159.39,65.47,43.34,42.99,65.25,95.53,65.25,156.11v221.1h0Z"/>
    <path class="cls-1" d="M5641.37,257.45h-243.49v301.03h243.49c21.44,0,39.37-7.92,52.66-23.3,13.52-16.2,20.03-36.7,20.03-61.74v-129.65c0-25.05-6.51-45.66-20.03-61.98-13.29-16.43-31.22-24.35-52.66-24.35ZM5745.76,1139.79l-171.5-411.81h-176.39v411.81h-186.18V87.6h465.09c62.46,0,115.11,21.68,158.46,65.47,43.33,42.99,65.47,95.77,65.47,156.11v183.48c0,47.64-13.28,91.22-39.38,129.55-27.5,37.97-61.98,65-102.53,82.83l184.55,434.76h-197.59Z"/>
    <polygon class="cls-1" points="6741.64 257.45 6471.6 257.45 6471.6 1139.79 6285.41 1139.79 6285.41 257.45 6017.91 257.45 6017.91 87.6 6741.64 87.6 6741.64 257.45"/>
    <path class="cls-1" d="M7584.92,915.53c0,62.33-21.68,115.33-65.01,158.44-43.8,43.8-96.71,65.81-159.15,65.81h-263.31c-62.67,0-114.64-21.08-157.27-62.9-41.94-41.95-63.14-93.79-63.14-157.5v-104.5h161.94l24.47,96.8c11.42,39.84,38.45,60.46,83.19,60.46h178.48c22.61,0,41.02-8.03,54.76-24.82,13.29-15.95,20.04-37.28,20.04-61.51v-115.09c0-56.39-24.69-85.16-74.8-85.16h-224.15c-61.98,0-115.11-21.43-158.21-65.24-43.12-43.91-65.71-96.69-65.71-158.66v-151.92c0-60.92,22.59-113.23,65.71-156.69,43.1-43.79,96.23-65.47,158.21-65.47h259.82c62.44,0,114.17,20.97,157.05,62.68,42.17,42.05,63.84,93.77,63.84,156.81v94.47h-161.7l-24.47-85.61c-13.05-40.77-40.55-60.81-82.02-60.81h-176.63c-22.37,0-41.24,8.16-54.52,24.69-13.52,16.54-20.51,37.05-20.51,62.33v88.54c0,55.22,25.4,82.83,75.03,82.83h223.93c61.51,0,113.95,22.14,157.27,66.52,45.21,44.39,66.88,96.58,66.88,157.52v177.99h0Z"/>
    <path class="cls-1" d="M4984.97,913.91c0,63.95-21.2,116.95-65.94,160.07-44.05,43.8-96,65.81-158.44,65.81h-251.43c-62.68,0-115.57-22.01-159.37-65.81-43.57-43.11-65.71-96.12-65.71-160.07V309.18c0-60.33,22.14-113.11,65.71-156.11,43.8-43.79,96.7-65.47,159.37-65.47h251.43c62.44,0,114.4,21.68,158.44,64.77,44.74,42.4,65.94,95.75,65.94,156.79v604.73h0ZM4724.46,257.45h-178.25c-23.3,0-41.24,7.92-55.22,24.35-13.28,16.32-19.8,36.93-19.8,61.98v539.37c0,24.45,6.53,44.84,19.8,61.27,13.98,17.01,31.92,25.75,55.22,25.75h178.25c21.44,0,39.62-8.73,53.36-25.75,14.45-16.43,21.44-36.81,21.44-61.27V343.78c0-25.05-6.99-45.66-21.44-61.98-13.74-16.43-31.92-24.35-53.36-24.35Z"/>
  </g>
</svg>