<?xml version="1.0" encoding="UTF-8"?>
<svg id="Layer_1" data-name="Layer 1" xmlns="http://www.w3.org/2000/svg" version="1.1" viewBox="0 0 100 66.82" width="244" height="90">
  <defs>
    <style>
      .cls-1 {
        fill: #000;
      }

      .cls-1, .cls-2, .cls-3 {
        stroke-width: 0px;
      }

      .cls-2 {
        fill: #fff;
      }

      .cls-3 {
        fill: #231f20;
      }
    </style>
  </defs>
  <polygon class="cls-2" points="100.23 0 0 0 0 66.82 100.23 66.82 100.23 0 100.23 0"/>
  <polyline class="cls-3" points="99.36 .89 99.36 65.93 .87 65.93 .87 .89 99.36 .89"/>
  <path class="cls-2" d="M60.18,62.65c-.69,0-1.23-.23-1.62-.7-.44-.53-.66-1.28-.66-2.23s.22-1.7.67-2.26c.38-.49.88-.73,1.49-.73.67,0,1.21.25,1.59.75.43.56.65,1.39.65,2.46v.25h-3c.02.38.11.67.27.88.17.22.38.33.62.33.34,0,.57-.24.69-.72l.02-.08,1.36.28-.03.09c-.16.57-.42,1-.77,1.27-.35.28-.78.42-1.28.42ZM59.32,59.13h1.62c-.02-.37-.11-.65-.25-.83-.16-.2-.34-.29-.55-.29-.23,0-.41.1-.57.31-.15.2-.23.47-.24.82Z"/>
  <path class="cls-2" d="M65.46,62.65c-.6,0-1.1-.15-1.48-.45-.38-.3-.64-.74-.76-1.31l-.02-.09h.09s1.28-.25,1.28-.25v.08c.11.53.4.8.9.8.27,0,.47-.05.59-.15.12-.1.18-.21.18-.36,0-.1-.02-.17-.07-.23-.04-.04-.13-.1-.35-.15-1.01-.27-1.63-.52-1.91-.76-.35-.31-.53-.74-.53-1.27s.17-.97.51-1.29c.34-.32.84-.48,1.47-.48s1.08.12,1.4.36c.32.24.55.63.68,1.16l.02.08-1.29.29-.02-.08c-.09-.4-.34-.6-.77-.6-.27,0-.47.04-.58.11-.1.07-.15.15-.15.26,0,.09.04.17.14.23.07.05.31.16,1.04.36.69.2,1.15.43,1.4.71.25.28.37.66.37,1.12,0,.55-.19,1.02-.57,1.38-.38.36-.91.54-1.57.54Z"/>
  <path class="cls-2" d="M70.34,62.52h-1.37v-5.66h1.28v.54c.13-.22.26-.38.37-.47.16-.13.36-.2.58-.2.29,0,.57.1.83.29l.05.03-.42,1.45-.1-.08c-.35-.28-.66-.28-.89-.06-.11.11-.2.32-.25.62-.05.32-.08.91-.08,1.76v1.78Z"/>
  <path class="cls-2" d="M75.5,62.65c-.27,0-.55-.09-.81-.25-.19-.12-.37-.28-.51-.49v.61h-1.28v-7.75h1.37v2.57c.15-.17.31-.3.48-.4.23-.13.48-.2.75-.2.56,0,1.03.25,1.42.75.38.49.57,1.22.57,2.18s-.2,1.69-.58,2.2c-.39.52-.86.79-1.4.79ZM75.16,58c-.25,0-.46.12-.64.37-.18.25-.28.65-.28,1.19,0,.46.04.82.13,1.05.08.23.2.41.36.53.15.12.31.18.47.18.24,0,.43-.12.61-.38.18-.26.27-.68.27-1.26,0-.61-.09-1.05-.27-1.31-.17-.26-.39-.38-.65-.38Z"/>
  <path class="cls-2" d="M80.17,62.52h-1.36v-1.62h1.36v1.62Z"/>
  <path class="cls-2" d="M83.91,62.65c-.69,0-1.28-.27-1.74-.8-.45-.53-.68-1.28-.68-2.24,0-.55.11-1.06.33-1.51.22-.45.51-.8.87-1.03.36-.23.77-.34,1.22-.34.75,0,1.35.3,1.78.89.42.58.64,1.27.64,2.04,0,.58-.11,1.1-.33,1.57-.22.47-.52.83-.88,1.06-.36.24-.77.36-1.2.36ZM83.9,58.08c-.27,0-.51.13-.71.4-.21.27-.31.68-.31,1.21s.11.94.31,1.21c.2.26.44.39.73.39s.51-.13.71-.4c.2-.27.31-.68.31-1.22s-.11-.93-.31-1.2c-.21-.27-.44-.4-.72-.4Z"/>
  <path class="cls-2" d="M88.95,62.52h-1.37v-5.66h1.28v.54c.13-.22.26-.38.37-.47.16-.13.36-.2.58-.2.29,0,.57.1.83.29l.05.03-.42,1.45-.1-.08c-.35-.28-.66-.28-.89-.06-.11.11-.2.32-.25.62-.05.32-.08.91-.08,1.76v1.78Z"/>
  <path class="cls-2" d="M93.64,64.75c-.5,0-.92-.07-1.22-.2-.31-.14-.56-.35-.72-.62-.16-.27-.25-.59-.25-.95v-.28h.1s1.44.23,1.44.23v.07c.03.18.08.3.17.37.09.07.24.11.45.11.24,0,.45-.04.6-.12.1-.05.17-.14.23-.27.06-.13.09-.38.09-.73v-.53c-.15.19-.31.35-.48.46-.24.16-.5.24-.79.24-.53,0-.98-.24-1.34-.71-.4-.53-.61-1.25-.61-2.15,0-.95.19-1.69.58-2.18.38-.5.86-.75,1.42-.75.3,0,.57.08.81.24.18.11.34.27.49.47v-.58h1.29v5.01c0,.8-.07,1.39-.22,1.75-.15.37-.39.66-.71.85-.31.19-.75.28-1.3.28ZM93.59,58c-.26,0-.47.12-.64.37-.18.25-.27.66-.27,1.2,0,.57.09.99.27,1.24.17.25.37.37.62.37.26,0,.48-.12.67-.38.19-.26.29-.66.29-1.19s-.09-.96-.28-1.22c-.18-.25-.39-.38-.65-.38Z"/>
  <g>
    <rect class="cls-2" x="4.35" y="19.06" width="91.53" height="32.91"/>
    <rect class="cls-2" x="4.35" y="4.41" width="91.5" height="11.17"/>
    <g>
      <polygon class="cls-2" points="4.37 62.52 4.37 55.6 13.38 55.6 13.38 57.22 7.99 57.22 7.99 58.21 12.56 58.21 12.56 59.82 7.99 59.82 7.99 60.9 13.59 60.9 13.59 62.52 4.37 62.52"/>
      <path class="cls-2" d="M21.26,57.61c-.06-.23-.26-.38-.52-.47-.26-.09-.58-.13-.94-.13-.8,0-1.15.15-1.15.4,0,1.02,6.36.38,6.36,2.9,0,1.6-2.14,2.38-5.18,2.38s-4.82-1.07-4.9-2.32h3.47c.08.25.29.43.6.54.29.12.67.17,1.03.17.9,0,1.51-.18,1.51-.51,0-1.05-6.36-.33-6.36-2.96,0-1.47,2.03-2.21,4.79-2.21,3.07,0,4.47.98,4.73,2.19h-3.44Z"/>
      <path class="cls-2" d="M30.43,58.6h1.42c1.12,0,1.72-.18,1.72-.66s-.61-.72-1.46-.72h-1.69v1.38ZM30.43,60.11v2.41h-3.62v-6.92h5.22c3.68,0,4.89.63,4.89,1.98,0,.8-.56,1.46-1.85,1.7,1.16.26,1.87.43,1.87,1.82,0,.9-.05,1.21.38,1.21v.21h-3.67c-.09-.15-.18-.6-.18-1.21,0-.91-.25-1.2-1.93-1.2h-1.1Z"/>
      <path class="cls-2" d="M42.77,57.22v1.16h1.51c.72,0,1.25-.21,1.25-.61,0-.54-.71-.55-1.48-.55h-1.28ZM42.77,59.63v1.27h1.58c.9,0,1.57-.12,1.57-.63,0-.61-.84-.64-2-.64h-1.15ZM39.15,62.52v-6.92h5.28c2.49,0,4.47.37,4.47,1.74,0,.71-.74,1.23-1.44,1.5,1.2.2,1.84.84,1.84,1.59,0,1.54-1.88,2.09-4.76,2.09h-5.39Z"/>
    </g>
    <g>
      <polygon class="cls-1" points="53.58 36.14 52.64 32.87 46.6 34.42 47.53 37.69 53.58 36.14"/>
      <polyline class="cls-3" points="18.76 26.81 37.95 21.1 39.87 27.16 30.26 30.01 31.05 32.49 39.92 29.85 41.84 35.91 32.97 38.54 33.8 41.15 43.72 38.2 45.65 44.25 26.15 50.06 18.76 26.81"/>
      <polygon class="cls-3" points="55 27.27 79.4 21.2 81.27 27.69 73.44 29.64 78.69 47.88 69.97 50.06 64.71 31.81 56.88 33.77 55 27.27"/>
    </g>
    <g>
      <path class="cls-3" d="M5.65,13.82v-7.94h2.63v1.22h-1.62v1.96h1.5v1.22h-1.5v2.32h1.68v1.22h-2.69Z"/>
      <path class="cls-3" d="M8.61,5.88h1.05l.75,5.77h.01l.84-5.77h1l-1.28,7.94h-1.18l-1.19-7.94Z"/>
      <path class="cls-3" d="M12.71,13.82v-7.94h2.63v1.22h-1.62v1.96h1.5v1.22h-1.5v2.32h1.68v1.22h-2.69Z"/>
      <path class="cls-3" d="M17.04,13.82h-1.01v-7.94h1.86c.35,0,.62.17.83.53.2.35.3.87.3,1.55,0,.51-.07.93-.2,1.29-.14.35-.37.57-.69.66v.02c.05.01.13.04.23.07.1.03.19.1.29.2.1.1.18.25.25.46.07.2.11.48.11.84,0,.12,0,.3,0,.53,0,.23,0,.46.02.71,0,.24.02.47.04.67.02.21.03.35.06.43h-.99c-.07-.24-.1-.49-.1-.76,0-.26,0-.52,0-.78,0-.24,0-.46,0-.67,0-.21-.02-.4-.07-.55-.04-.16-.11-.29-.21-.38-.1-.1-.25-.14-.44-.14h-.26v3.29ZM17.04,9.31h.45c.1,0,.18-.04.25-.11.07-.07.12-.17.16-.28.04-.12.07-.24.08-.38.02-.14.02-.27.02-.39,0-.38-.05-.65-.14-.81-.09-.16-.22-.24-.38-.24h-.45v2.21Z"/>
      <path class="cls-3" d="M20.56,11.08l-1.26-5.19h1.1l.72,3.35.77-3.35h1.03l-1.35,5.19v2.75h-1.01v-2.75Z"/>
      <path class="cls-3" d="M25,13.96c-.41,0-.74-.12-.96-.35-.23-.23-.39-.54-.5-.92-.1-.38-.16-.82-.18-1.32-.02-.49-.03-1-.03-1.52s0-1.04.03-1.53c.02-.49.08-.93.18-1.31.1-.38.27-.69.5-.92.23-.23.55-.35.96-.35s.73.12.96.35c.23.23.39.54.49.92.1.38.16.82.18,1.31.02.49.03,1,.03,1.53s0,1.03-.03,1.52c-.02.49-.08.93-.18,1.32-.1.38-.27.69-.49.92-.23.23-.55.35-.96.35ZM25,12.77c.14,0,.26-.06.34-.17s.15-.29.19-.52c.04-.23.07-.54.09-.91.01-.37.02-.81.02-1.32s0-.94-.02-1.31-.04-.67-.09-.91c-.05-.23-.11-.41-.19-.52-.08-.12-.2-.17-.34-.17s-.26.06-.34.17c-.08.11-.15.29-.19.52-.05.24-.07.54-.09.91s-.02.81-.02,1.31,0,.95.02,1.32c.01.37.04.67.09.91.04.23.11.41.19.52.08.11.2.17.34.17Z"/>
      <path class="cls-3" d="M27.48,13.82v-7.94h1.36l1.28,5.5h.01v-5.5h.94v7.94h-1.33l-1.32-5.81h-.01v5.81h-.94Z"/>
      <path class="cls-3" d="M31.93,13.82v-7.94h2.63v1.22h-1.62v1.96h1.5v1.22h-1.5v2.32h1.68v1.22h-2.69Z"/>
      <path class="cls-3" d="M36.33,8.27h.38v-.88l.94-.69v1.57h.49v.96h-.49v2.97c0,.1,0,.2,0,.29,0,.09.01.16.03.22.02.06.05.1.09.14.04.03.1.05.18.05h.09s.05,0,.08-.02v.96c-.06.01-.13.03-.2.04-.07,0-.17.02-.28.02-.2,0-.37-.05-.49-.14-.12-.1-.21-.21-.28-.34-.06-.13-.11-.27-.13-.41-.02-.14-.03-.25-.03-.34v-3.42h-.38v-.96Z"/>
      <path class="cls-3" d="M39.86,13.93c-.3,0-.55-.07-.73-.22-.18-.15-.32-.35-.42-.61-.1-.26-.16-.57-.19-.94-.03-.36-.04-.76-.04-1.19,0-.38.01-.74.04-1.08.03-.34.09-.64.18-.9.09-.26.23-.46.41-.61.18-.15.43-.23.74-.23s.56.08.74.23c.18.15.32.35.42.61.09.26.15.55.18.9.03.34.04.7.04,1.08,0,.43-.01.83-.04,1.19-.03.36-.09.68-.19.94-.1.26-.24.46-.42.61-.18.15-.43.22-.73.22ZM39.86,12.94c.08,0,.16-.03.21-.08.06-.05.1-.16.13-.31.03-.15.05-.36.07-.63.01-.27.02-.62.02-1.04,0-.29,0-.54,0-.76,0-.22-.03-.4-.06-.54-.03-.14-.08-.25-.13-.32-.06-.07-.14-.11-.23-.11s-.18.04-.24.11c-.06.07-.1.18-.13.32-.03.14-.05.32-.06.54,0,.22-.01.47-.01.76,0,.42,0,.77.02,1.04.01.27.04.48.07.63.03.15.07.25.13.31.06.06.13.08.22.08Z"/>
      <path class="cls-3" d="M46.31,5.88v1.32h-1.12v6.62h-1.01v-6.62h-1.12v-1.32h3.26Z"/>
      <path class="cls-3" d="M46.78,13.82v-7.94h2.63v1.22h-1.62v1.96h1.5v1.22h-1.5v2.32h1.68v1.22h-2.69Z"/>
      <path class="cls-3" d="M50.12,13.82v-7.94h2.63v1.22h-1.62v1.96h1.5v1.22h-1.5v2.32h1.68v1.22h-2.69Z"/>
      <path class="cls-3" d="M53.47,13.82v-7.94h1.36l1.28,5.5h.01v-5.5h.94v7.94h-1.33l-1.32-5.81h-.01v5.81h-.94Z"/>
    </g>
  </g>
</svg>